<svg xmlns="http://www.w3.org/2000/svg" viewBox="0 0 32 32">
      <g fill="none">
        <path fill="#000" d="M16 32c8.837 0 16-7.163 16-16S24.837 0 16 0 0 7.163 0 16s7.163 16 16 16z"/>
        <path fill="#fff" d="M25.419 19.32L16.53 7.868l-1.884 1.137L22.8 20.373l-4.524-2.723-6.29 4.024 1.883-1.137 4.523-2.883 1.884 1.137-4.524 2.723 6.654 4.024 4.524-7.24z"/>
        <path fill="#FBDE3F" d="m11.192 11.59 1.883-1.136 4.524 7.24-1.884 1.137z"/>
        <path fill="#F2615E" d="m11.192 20.665 4.524-2.723 1.883 1.136-4.523 2.883z"/>
        <path fill="#6D4E8D" d="m17.48 24.69 4.523-7.24 1.883 1.137-4.523 7.24z"/>
      </g>
    </svg>
