<svg xmlns="http://www.w3.org/2000/svg" viewBox="0 0 640 640"><path fill="#85ea2d" d="M439.38 335.13a110.15 110.15 0 0 1-38.64 105.79l-61.1 35.26-61.1-35.26a110.15 110.15 0 0 1-38.64-105.79V224.87a110.15 110.15 0 0 1 38.64-105.79l61.1-35.26 61.1 35.26a110.15 110.15 0 0 1 38.64 105.79z"/><path fill="#333333" d="M384.34 320a55.03 55.03 0 0 1-27.52 47.66l-61.1 35.26-61.1-35.26a55.03 55.03 0 0 1 0-95.32l61.1-35.26 61.1 35.26A55.03 55.03 0 0 1 384.34 320z"/><path fill="#ffffff" d="M579.38 335.13a110.15 110.15 0 0 1-38.64 105.79l-61.1 35.26-61.1-35.26a110.15 110.15 0 0 1-38.64-105.79V224.87a110.15 110.15 0 0 1 38.64-105.79l61.1-35.26 61.1 35.26a110.15 110.15 0 0 1 38.64 105.79z"/><path fill="#333333" d="M524.34 320a55.03 55.03 0 0 1-27.52 47.66l-61.1 35.26-61.1-35.26a55.03 55.03 0 0 1 0-95.32l61.1-35.26 61.1 35.26A55.03 55.03 0 0 1 524.34 320zM299.38 195.13a110.15 110.15 0 0 1-38.64 105.79l-61.1 35.26-61.1-35.26a110.15 110.15 0 0 1-38.64-105.79V84.87a110.15 110.15 0 0 1 38.64-105.79l61.1-35.26 61.1 35.26a110.15 110.15 0 0 1 38.64 105.79z"/><path fill="#333333" d="M244.34 180a55.03 55.03 0 0 1-27.52 47.66l-61.1 35.26-61.1-35.26a55.03 55.03 0 0 1 0-95.32l61.1-35.26 61.1 35.26A55.03 55.03 0 0 1 244.34 180z"/></svg>
